<?xml version="1.0" standalone="no"?>
<!DOCTYPE svg PUBLIC "-//W3C//DTD SVG 20010904//EN"
 "http://www.w3.org/TR/2001/REC-SVG-20010904/DTD/svg10.dtd">
<svg version="1.0" xmlns="http://www.w3.org/2000/svg"
 width="1280.000000pt" height="914.000000pt" viewBox="0 0 1280.000000 914.000000"
 preserveAspectRatio="xMidYMid meet">
<g transform="translate(0.000000,914.000000) scale(0.100000,-0.100000)"
fill="#000000" stroke="none">
<path d="M8891 7863 l-1251 -1258 458 -457 457 -458 107 107 c60 59 108 111
108 116 0 5 -49 92 -110 194 -60 102 -110 188 -110 192 0 3 295 301 655 661
360 360 655 659 655 664 0 5 -67 76 -150 158 -82 83 -150 153 -150 156 0 4
198 205 440 447 242 242 440 444 440 450 0 14 -273 285 -287 285 -6 0 -574
-566 -1262 -1257z"/>
<path d="M2233 8891 c-92 -31 -180 -122 -215 -220 -10 -29 -13 -394 -13 -1796
l0 -1760 33 -67 c37 -75 100 -138 172 -172 l45 -21 1591 -3 1590 -2 147 214
147 214 0 545 c0 488 -2 545 -16 551 -20 8 -132 8 -161 0 l-23 -6 -2 -547 -3
-546 -104 -3 c-67 -2 -108 1 -117 9 -12 10 -14 101 -14 549 0 481 -2 538 -16
544 -20 8 -132 8 -161 0 l-23 -6 -2 -547 -3 -546 -104 -3 c-67 -2 -108 1 -117
9 -12 10 -14 101 -14 549 0 481 -2 538 -16 544 -9 3 -46 6 -84 6 -38 0 -75 -3
-84 -6 -14 -6 -16 -63 -16 -549 0 -486 -2 -543 -16 -549 -29 -11 -199 -7 -212
6 -9 9 -12 145 -12 549 0 480 -2 537 -16 543 -20 8 -148 8 -168 0 -14 -6 -16
-63 -16 -549 0 -486 -2 -543 -16 -549 -20 -8 -188 -8 -208 0 -14 6 -16 63 -16
549 0 486 -2 543 -16 549 -20 8 -148 8 -168 0 -14 -6 -16 -63 -16 -543 0 -404
-3 -540 -12 -549 -13 -13 -183 -17 -212 -6 -14 6 -16 63 -16 549 l0 543 -22 6
c-30 8 -142 8 -162 0 -14 -6 -16 -63 -16 -543 0 -404 -3 -540 -12 -549 -9 -9
-109 -12 -391 -12 l-378 0 -60 57 -59 56 0 393 0 393 53 28 52 28 3 280 c1
154 0 289 -2 301 -4 12 -25 29 -56 44 l-50 23 0 312 0 311 55 54 56 55 412 5
412 5 13 204 c7 115 17 210 23 218 9 10 57 13 208 13 l197 0 27 212 c17 136
31 214 39 220 21 13 1315 10 1324 -3 3 -6 18 -104 33 -218 l26 -206 202 -5
c111 -3 204 -8 207 -11 4 -3 11 -82 16 -175 6 -93 13 -188 16 -211 l5 -42 409
-3 410 -3 57 -58 58 -57 3 -278 c2 -152 0 -291 -3 -309 -5 -26 -16 -37 -58
-60 l-52 -28 -3 -154 c-1 -86 2 -159 7 -164 6 -6 36 31 79 95 67 100 77 110
249 245 98 77 184 147 191 156 10 12 12 187 10 838 l-3 824 -29 58 c-35 68
-108 140 -174 170 l-47 22 -2260 2 c-2151 2 -2262 2 -2312 -16z"/>
<path d="M10230 8281 l-385 -379 69 -71 c40 -40 74 -67 80 -63 6 4 180 177
386 385 l374 377 -64 65 c-35 36 -67 65 -70 65 -3 0 -178 -171 -390 -379z"/>
<path d="M10545 7969 c-206 -205 -375 -377 -375 -383 0 -6 29 -41 65 -76 l65
-65 380 380 c209 209 380 384 380 390 0 14 -112 125 -127 125 -7 0 -182 -167
-388 -371z"/>
<path d="M10855 7650 l-380 -380 65 -65 c35 -36 69 -65 75 -65 16 0 755 743
755 760 0 16 -109 130 -125 130 -5 0 -181 -171 -390 -380z"/>
<path d="M11165 7340 l-380 -380 65 -65 c35 -36 70 -65 76 -65 15 0 754 748
754 763 0 14 -111 127 -125 127 -5 0 -181 -171 -390 -380z"/>
<path d="M9431 6856 l-595 -595 114 -188 c62 -103 115 -192 118 -197 2 -4
-240 -253 -539 -552 l-544 -544 228 -227 227 -228 544 544 544 544 49 -28 c26
-15 112 -66 190 -112 78 -45 145 -83 150 -83 4 0 276 268 603 595 l595 595
-536 535 c-294 294 -540 535 -545 535 -5 0 -276 -267 -603 -594z"/>
<path d="M11478 7033 l-378 -378 70 -70 70 -70 382 382 383 383 -65 65 c-35
36 -69 65 -74 65 -6 0 -180 -170 -388 -377z"/>
<path d="M11797 6722 c-207 -207 -377 -382 -377 -387 0 -16 126 -138 138 -134
15 6 752 756 752 766 0 9 -122 133 -130 133 -3 0 -175 -170 -383 -378z"/>
<path d="M12045 6340 c-242 -242 -444 -440 -449 -440 -5 0 -78 68 -161 150
-83 83 -156 150 -162 150 -6 0 -298 -291 -649 -646 -351 -355 -647 -650 -656
-655 -15 -8 -57 13 -210 106 l-192 115 -108 -107 c-59 -59 -108 -112 -108
-118 0 -13 902 -915 915 -915 13 0 2515 2502 2515 2515 0 13 -272 285 -285
285 -6 0 -208 -198 -450 -440z"/>
<path d="M7095 6578 l-169 -133 -434 -653 -435 -654 494 -494 494 -494 -110
-110 c-60 -61 -118 -113 -129 -116 -15 -5 -81 56 -310 282 -160 159 -370 367
-467 462 l-176 174 -117 -178 -116 -179 430 -430 c264 -264 430 -437 430 -449
0 -23 -207 -236 -229 -236 -9 0 -196 180 -416 400 -220 220 -405 400 -411 400
-12 0 -234 -328 -234 -345 0 -6 169 -179 375 -385 206 -206 375 -379 375 -385
0 -16 -224 -235 -240 -235 -8 0 -170 155 -360 345 -190 190 -349 345 -355 345
-5 0 -61 -80 -124 -176 l-114 -176 321 -321 c177 -177 322 -329 322 -338 0
-15 -220 -239 -236 -239 -4 0 -144 136 -310 302 l-303 301 -115 -177 c-91
-139 -114 -181 -107 -194 5 -9 125 -132 265 -272 141 -140 256 -261 256 -267
0 -7 -53 -66 -117 -131 -418 -420 -874 -670 -1367 -749 -155 -24 -418 -22
-581 7 -1008 173 -1798 1100 -1915 2244 -25 241 -4 595 50 851 99 471 352 977
687 1371 l58 68 3 385 c1 212 0 391 -3 399 -7 19 -73 -37 -284 -243 -572 -560
-956 -1140 -1172 -1775 -157 -458 -223 -962 -181 -1375 71 -685 312 -1283 726
-1797 526 -653 1301 -1092 2081 -1178 55 -6 133 -15 173 -20 93 -13 231 -13
324 0 40 5 118 14 173 20 338 38 678 141 1005 305 357 180 638 384 951 692 91
90 172 163 180 163 7 0 134 -120 280 -266 l266 -266 176 117 177 118 -80 86
c-43 47 -176 183 -294 301 -119 118 -216 219 -216 225 0 13 222 235 235 235 6
0 154 -144 330 -320 176 -176 324 -320 330 -320 14 0 345 221 345 231 0 4
-158 164 -350 355 -192 191 -350 352 -350 358 0 17 223 236 240 236 8 0 184
-169 391 -376 l376 -375 176 116 c97 63 177 119 177 123 0 4 -182 187 -405
406 -223 219 -405 405 -405 414 0 18 218 242 235 242 6 0 204 -194 440 -430
275 -275 436 -429 446 -427 8 2 91 55 183 117 l169 112 -467 467 c-256 256
-466 470 -466 475 0 16 223 236 239 236 9 0 234 -218 501 -485 267 -267 488
-485 492 -485 4 0 298 194 655 431 l647 430 128 167 c70 92 128 172 128 177 0
6 -259 269 -575 585 l-575 575 -450 -450 -450 -450 -390 390 c-214 214 -390
396 -390 405 0 8 199 214 442 457 l443 443 -570 570 c-313 314 -572 570 -575
570 -3 0 -81 -60 -175 -132z"/>
</g>
</svg>
